# xmcd
#
# Track frame offsets:
#	150
#	34280
#	68215
#	91712
#	109340
#	128460
#	145142
#	182345
#	200377
#	232827
#
# Disc length: 3417 seconds
#
# Revision: 1
# Processed by: cddbd v1.5PL3 Copyright (c) Steve Scherf et al.
# Submitted via: audiograbber 1.80.04
#
DISCID=7b0d570a
DTITLE=Nature's harmony - American Landscape
DYEAR=1900
DGENRE=Alternative Rock
TTITLE0=Rhytm of the waves
TTITLE1=Down by the tracks
TTITLE2=Windy city blues
TTITLE3=Bayou Pon Pon
TTITLE4=Country colors
TTITLE5=Jonah's dream
TTITLE6=China town
TTITLE7=Los jabalines
TTITLE8=Echohes along the mesa
TTITLE9=the spirit of Yellowstone
EXTD=
EXTT0=
EXTT1=
EXTT2=
EXTT3=
EXTT4=
EXTT5=
EXTT6=
EXTT7=
EXTT8=
EXTT9=
PLAYORDER=
